<?xml version="1.0" encoding="UTF-8"?>
<svg xmlns="http://www.w3.org/2000/svg" width="960" height="470" viewBox="0 0 960 470" role="img" aria-label="X post preview">
  <rect x="1" y="1" width="958" height="468" rx="20" ry="20" fill="#FFFFFF" stroke="#E1E8ED" stroke-width="1.5" />
  
  <circle cx="64" cy="64" r="32" fill="#D1D9DE" />
  <text x="64" y="64" fill="#FFFFFF" font-family="'Helvetica Neue', 'SF Pro Text', 'SF Pro Display', 'Segoe UI', Roboto, 'Noto Sans JP', Arial, sans-serif" font-size="28" font-weight="700" text-anchor="middle" dominant-baseline="central">ナナ</text>
  

  <text x="112" y="59" fill="#0F1419" font-family="'Helvetica Neue', 'SF Pro Text', 'SF Pro Display', 'Segoe UI', Roboto, 'Noto Sans JP', Arial, sans-serif" font-size="28" font-weight="700">ナナチョコ</text>
  
  <text x="112" y="90" fill="#536471" font-family="'Helvetica Neue', 'SF Pro Text', 'SF Pro Display', 'Segoe UI', Roboto, 'Noto Sans JP', Arial, sans-serif" font-size="22">@aaaaaa18</text>

  <svg x="898.00" y="32.00" width="30.00" height="30.00" viewBox="0 0 24 24" aria-hidden="true" class="r-18jsvk2 r-4qtqp9 r-yyyyoo r-6zzn7w r-19fsva8 r-dnmrzs r-bnwqim r-1plcrui r-lrvibr r-q1j0wu"><g><path d="M18.244 2.25h3.308l-7.227 8.26 8.502 11.24H16.17l-5.214-6.817L4.99 21.75H1.68l7.73-8.835L1.254 2.25H8.08l4.713 6.231zm-1.161 17.52h1.833L7.084 4.126H5.117z"></path></g></svg>

  
  <text x="32" y="139" fill="#0F1419" font-family="'Helvetica Neue', 'SF Pro Text', 'SF Pro Display', 'Segoe UI', Roboto, 'Noto Sans JP', Arial, sans-serif" font-size="28">金沢で和菓子職人に憧れ、家族の誕生日ケーキから始まった</text>
  
  <text x="32" y="186.85" fill="#0F1419" font-family="'Helvetica Neue', 'SF Pro Text', 'SF Pro Display', 'Segoe UI', Roboto, 'Noto Sans JP', Arial, sans-serif" font-size="28">私の甘い執念。いま目黒で、触感と香りまで設計する</text>
  
  <text x="32" y="234.7" fill="#0F1419" font-family="'Helvetica Neue', 'SF Pro Text', 'SF Pro Display', 'Segoe UI', Roboto, 'Noto Sans JP', Arial, sans-serif" font-size="28">チョコを作っています。完璧って、食べられるんです。ひと</text>
  
  <text x="32" y="282.55" fill="#0F1419" font-family="'Helvetica Neue', 'SF Pro Text', 'SF Pro Display', 'Segoe UI', Roboto, 'Noto Sans JP', Arial, sans-serif" font-size="28">くち、どうぞ。</text>
  

  
  
  <text x="32" y="325.55" fill="#536471" font-family="'Helvetica Neue', 'SF Pro Text', 'SF Pro Display', 'Segoe UI', Roboto, 'Noto Sans JP', Arial, sans-serif" font-size="22">12:00 PM - Jan 1, 2021</text>
  <svg x="908.00" y="307.55" width="20.00" height="20.00" viewBox="0 0 24 24" aria-hidden="true" class="r-14j79pv r-4qtqp9 r-yyyyoo r-1xvli5t r-dnmrzs r-bnwqim r-1plcrui r-lrvibr"><g><path d="M13.5 8.5c0 .83-.67 1.5-1.5 1.5s-1.5-.67-1.5-1.5S11.17 7 12 7s1.5.67 1.5 1.5zM13 17v-5h-2v5h2zm-1 5.25c5.66 0 10.25-4.59 10.25-10.25S17.66 1.75 12 1.75 1.75 6.34 1.75 12 6.34 22.25 12 22.25zM20.25 12c0 4.56-3.69 8.25-8.25 8.25S3.75 16.56 3.75 12 7.44 3.75 12 3.75s8.25 3.69 8.25 8.25z"></path></g></svg>
  

  <line x1="32" y1="337.55" x2="928" y2="337.55" stroke="#E6ECF0" stroke-width="1" />

  
  <svg x="32.00" y="354.55" width="22.00" height="22.00" viewBox="0 0 24 24" aria-hidden="true" class="r-4qtqp9 r-yyyyoo r-dnmrzs r-bnwqim r-lrvibr r-m6rgpd r-50lct3 r-1srniue"><g><path d="M16.697 5.5c-1.222-.06-2.679.51-3.89 2.16l-.805 1.09-.806-1.09C9.984 6.01 8.526 5.44 7.304 5.5c-1.243.07-2.349.78-2.91 1.91-.552 1.12-.633 2.78.479 4.82 1.074 1.97 3.257 4.27 7.129 6.61 3.87-2.34 6.052-4.64 7.126-6.61 1.111-2.04 1.03-3.7.477-4.82-.561-1.13-1.666-1.84-2.908-1.91zm4.187 7.69c-1.351 2.48-4.001 5.12-8.379 7.67l-.503.3-.504-.3c-4.379-2.55-7.029-5.19-8.382-7.67-1.36-2.5-1.41-4.86-.514-6.67.887-1.79 2.647-2.91 4.601-3.01 1.651-.09 3.368.56 4.798 2.01 1.429-1.45 3.146-2.1 4.796-2.01 1.954.1 3.714 1.22 4.601 3.01.896 1.81.846 4.17-.514 6.67z"></path></g></svg>
  <text x="62" y="372.55" fill="#536471" font-family="'Helvetica Neue', 'SF Pro Text', 'SF Pro Display', 'Segoe UI', Roboto, 'Noto Sans JP', Arial, sans-serif" font-size="20">0</text>
  
  <svg x="105.00" y="354.55" width="22.00" height="22.00" viewBox="0 0 24 24" aria-hidden="true" class="r-4qtqp9 r-yyyyoo r-dnmrzs r-bnwqim r-lrvibr r-m6rgpd r-50lct3 r-1srniue"><g><path d="M1.751 10c0-4.42 3.584-8 8.005-8h4.366c4.49 0 8.129 3.64 8.129 8.13 0 2.96-1.607 5.68-4.196 7.11l-8.054 4.46v-3.69h-.067c-4.49.1-8.183-3.51-8.183-8.01zm8.005-6c-3.317 0-6.005 2.69-6.005 6 0 3.37 2.77 6.08 6.138 6.01l.351-.01h1.761v2.3l5.087-2.81c1.951-1.08 3.163-3.13 3.163-5.36 0-3.39-2.744-6.13-6.129-6.13H9.756z"></path></g></svg>
  <text x="135" y="372.55" fill="#536471" font-family="'Helvetica Neue', 'SF Pro Text', 'SF Pro Display', 'Segoe UI', Roboto, 'Noto Sans JP', Arial, sans-serif" font-size="20">Reply</text>
  
  <svg x="218.00" y="354.55" width="22.00" height="22.00" viewBox="0 0 24 24" aria-hidden="true" class="r-14j79pv r-4qtqp9 r-yyyyoo r-1xvli5t r-dnmrzs r-bnwqim r-1plcrui r-lrvibr" style=""><g><path d="M18.36 5.64c-1.95-1.96-5.11-1.96-7.07 0L9.88 7.05 8.46 5.64l1.42-1.42c2.73-2.73 7.16-2.73 9.9 0 2.73 2.74 2.73 7.17 0 9.9l-1.42 1.42-1.41-1.42 1.41-1.41c1.96-1.96 1.96-5.12 0-7.07zm-2.12 3.53l-7.07 7.07-1.41-1.41 7.07-7.07 1.41 1.41zm-12.02.71l1.42-1.42 1.41 1.42-1.41 1.41c-1.96 1.96-1.96 5.12 0 7.07 1.95 1.96 5.11 1.96 7.07 0l1.41-1.41 1.42 1.41-1.42 1.42c-2.73 2.73-7.16 2.73-9.9 0-2.73-2.74-2.73-7.17 0-9.9z"></path></g></svg>
  <text x="248" y="372.55" fill="#536471" font-family="'Helvetica Neue', 'SF Pro Text', 'SF Pro Display', 'Segoe UI', Roboto, 'Noto Sans JP', Arial, sans-serif" font-size="20">Copy link</text>
  

  
  <rect x="32" y="393.55" width="896" height="44" rx="22" ry="22" fill="#FFFFFF" stroke="#E6ECF0" stroke-width="1" />
  <text x="412" y="425.55" fill="#1DA1F2" font-family="'Helvetica Neue', 'SF Pro Text', 'SF Pro Display', 'Segoe UI', Roboto, 'Noto Sans JP', Arial, sans-serif" font-size="20" font-weight="600">Read 1 replies</text>
  
  
</svg>
